<svg width="25" height="24" viewBox="0 0 25 24" fill="none" xmlns="http://www.w3.org/2000/svg">
<path d="M21.505 24H2.66482C1.24592 24 0.0957031 22.8488 0.0957031 21.4286V2.57143C0.0957031 1.15125 1.24592 0 2.66482 0H21.505C22.9239 0 24.0741 1.15125 24.0741 2.57143V21.4286C24.0741 22.8488 22.9239 24 21.505 24ZM10.5495 18.7468L20.3978 8.8897C20.7322 8.55498 20.7322 8.01225 20.3978 7.67754L19.1867 6.46537C18.8523 6.13066 18.3101 6.13061 17.9756 6.46537L9.94397 14.5042L6.19419 10.751C5.85978 10.4163 5.31753 10.4163 4.98307 10.751L3.772 11.9632C3.43758 12.2979 3.43758 12.8406 3.772 13.1754L9.33841 18.7468C9.67288 19.0816 10.2151 19.0816 10.5495 18.7468Z" fill="#5BA200"/>
</svg>
