<svg width="44" height="44" viewBox="0 0 44 44" fill="none" xmlns="http://www.w3.org/2000/svg">
<rect width="44" height="44" rx="4" fill="#D0112B"/>
<path d="M32.1786 10.6429H26.0179L25.5353 9.68282C25.433 9.47757 25.2756 9.30492 25.0806 9.1843C24.8856 9.06367 24.6608 8.99984 24.4315 9.00001H18.5634C18.3346 8.99913 18.1102 9.06271 17.9159 9.18348C17.7216 9.30424 17.5652 9.4773 17.4647 9.68282L16.9821 10.6429H10.8214C10.6036 10.6429 10.3946 10.7294 10.2406 10.8835C10.0865 11.0375 10 11.2464 10 11.4643V13.1072C10 13.325 10.0865 13.5339 10.2406 13.688C10.3946 13.842 10.6036 13.9286 10.8214 13.9286H32.1786C32.3964 13.9286 32.6054 13.842 32.7594 13.688C32.9135 13.5339 33 13.325 33 13.1072V11.4643C33 11.2464 32.9135 11.0375 32.7594 10.8835C32.6054 10.7294 32.3964 10.6429 32.1786 10.6429ZM12.7313 32.9755C12.7704 33.6011 13.0466 34.1883 13.5034 34.6175C13.9603 35.0467 14.5635 35.2856 15.1904 35.2857H27.8096C28.4365 35.2856 29.0397 35.0467 29.4966 34.6175C29.9534 34.1883 30.2296 33.6011 30.2688 32.9755L31.3571 15.5714H11.6429L12.7313 32.9755Z" fill="white"/>
</svg>
