<svg width="44" height="44" viewBox="0 0 44 44" fill="none" xmlns="http://www.w3.org/2000/svg">
<rect width="44" height="44" rx="4" fill="#5971C0"/>
<path d="M36.8187 21.2396C33.9942 15.7286 28.4026 12 22 12C15.5974 12 10.0041 15.7313 7.18122 21.2401C7.06208 21.4758 7 21.7362 7 22.0003C7 22.2643 7.06208 22.5247 7.18122 22.7604C10.0057 28.2714 15.5974 32 22 32C28.4026 32 33.9958 28.2687 36.8187 22.7599C36.9379 22.5242 36.9999 22.2638 36.9999 21.9997C36.9999 21.7357 36.9379 21.4753 36.8187 21.2396ZM22 29.5C20.5166 29.5 19.0666 29.0601 17.8332 28.236C16.5998 27.4119 15.6385 26.2406 15.0709 24.8701C14.5032 23.4997 14.3547 21.9917 14.6441 20.5368C14.9335 19.082 15.6478 17.7456 16.6967 16.6967C17.7456 15.6478 19.0819 14.9335 20.5368 14.6441C21.9917 14.3547 23.4997 14.5032 24.8701 15.0709C26.2405 15.6386 27.4119 16.5999 28.236 17.8332C29.0601 19.0666 29.5 20.5166 29.5 22C29.5005 22.985 29.3068 23.9605 28.93 24.8707C28.5533 25.7809 28.0009 26.6078 27.3043 27.3044C26.6078 28.0009 25.7808 28.5533 24.8707 28.9301C23.9605 29.3068 22.985 29.5005 22 29.5ZM22 17C21.5537 17.0062 21.1103 17.0726 20.6817 17.1974C21.035 17.6774 21.2045 18.2682 21.1595 18.8625C21.1146 19.4568 20.8581 20.0153 20.4367 20.4367C20.0153 20.8582 19.4567 21.1146 18.8624 21.1596C18.2681 21.2045 17.6774 21.035 17.1974 20.6818C16.924 21.6888 16.9734 22.7563 17.3385 23.7339C17.7035 24.7114 18.366 25.5499 19.2326 26.1312C20.0992 26.7126 21.1262 27.0075 22.1692 26.9746C23.2122 26.9416 24.2186 26.5824 25.0468 25.9476C25.8749 25.3127 26.4832 24.4341 26.7858 23.4354C27.0885 22.4368 27.0704 21.3683 26.734 20.3805C26.3976 19.3927 25.7599 18.5352 24.9107 17.9288C24.0615 17.3224 23.0435 16.9975 22 17Z" fill="white"/>
</svg>
