<svg width="25" height="24" viewBox="0 0 25 24" fill="none" xmlns="http://www.w3.org/2000/svg">
<path d="M20.1621 7.33L15.6572 2.33C15.5623 2.2264 15.4465 2.14353 15.3172 2.08669C15.1879 2.02986 15.0479 2.00033 14.9063 2H6.78934C6.45223 1.99603 6.11762 2.05756 5.80464 2.18105C5.49166 2.30455 5.20642 2.4876 4.96522 2.71975C4.72402 2.9519 4.53159 3.22861 4.3989 3.53406C4.26621 3.83952 4.19587 4.16775 4.19189 4.5V19.5C4.19587 19.8322 4.26621 20.1605 4.3989 20.4659C4.53159 20.7714 4.72402 21.0481 4.96522 21.2802C5.20642 21.5124 5.49166 21.6954 5.80464 21.8189C6.11762 21.9424 6.45223 22.004 6.78934 22H17.8285C18.1656 22.004 18.5002 21.9424 18.8132 21.8189C19.1261 21.6954 19.4114 21.5124 19.6526 21.2802C19.8938 21.0481 20.0862 20.7714 20.2189 20.4659C20.3516 20.1605 20.4219 19.8322 20.4259 19.5V8C20.4252 7.75216 20.3312 7.51339 20.1621 7.33ZM14.3381 4L18.1328 8H15.089C14.9827 7.99367 14.8788 7.96656 14.7833 7.92023C14.6878 7.8739 14.6026 7.80929 14.5327 7.73016C14.4628 7.65103 14.4096 7.55898 14.3762 7.45937C14.3428 7.35976 14.3299 7.25459 14.3381 7.15V4Z" fill="#0056B8"/>
</svg>
