<svg width="44" height="44" viewBox="0 0 44 44" fill="none" xmlns="http://www.w3.org/2000/svg">
<path d="M38.9547 43.6292H4.67456C2.09381 43.6292 0 41.5354 0 38.9547V4.67456C0 2.09381 2.09381 0 4.67456 0H38.9547C41.5354 0 43.6292 2.09381 43.6292 4.67456V38.9547C43.6292 41.5354 41.5354 43.6292 38.9547 43.6292ZM23.1878 14.2087L9.97239 27.4241L9.35886 32.9849C9.28095 33.725 9.90422 34.358 10.6541 34.2801L16.2149 33.6666L29.4302 20.4512C29.6542 20.2272 29.6542 19.8571 29.4302 19.6234L24.0253 14.2184C23.7818 13.9847 23.4118 13.9847 23.1878 14.2087ZM33.5984 12.9622L30.6671 10.0308C29.7516 9.11539 28.2713 9.11539 27.3656 10.0308L25.116 12.2805C24.892 12.5044 24.892 12.8745 25.116 13.1082L30.521 18.5132C30.745 18.7372 31.115 18.7372 31.3488 18.5132L33.5984 16.2636C34.5041 15.3579 34.5041 13.8776 33.5984 12.9622Z" fill="#F3C96B"/>
</svg>
