<svg width="44" height="44" viewBox="0 0 44 44" fill="none" xmlns="http://www.w3.org/2000/svg">
<path d="M33 5.5H11C9.54131 5.5 8.14236 6.07946 7.11091 7.11091C6.07946 8.14236 5.5 9.54131 5.5 11V33C5.5 34.4587 6.07946 35.8576 7.11091 36.8891C8.14236 37.9205 9.54131 38.5 11 38.5H33C34.4587 38.5 35.8576 37.9205 36.8891 36.8891C37.9205 35.8576 38.5 34.4587 38.5 33V11C38.5 9.54131 37.9205 8.14236 36.8891 7.11091C35.8576 6.07946 34.4587 5.5 33 5.5ZM14.6667 12.8333C15.2106 12.8333 15.7422 12.9946 16.1945 13.2968C16.6467 13.599 16.9992 14.0285 17.2073 14.531C17.4155 15.0335 17.4699 15.5864 17.3638 16.1198C17.2577 16.6533 16.9958 17.1433 16.6112 17.5279C16.2266 17.9125 15.7366 18.1744 15.2032 18.2805C14.6697 18.3866 14.1168 18.3321 13.6143 18.124C13.1118 17.9159 12.6823 17.5634 12.3801 17.1112C12.078 16.6589 11.9167 16.1272 11.9167 15.5833C11.9167 14.854 12.2064 14.1545 12.7221 13.6388C13.2378 13.1231 13.9373 12.8333 14.6667 12.8333ZM34.8333 32.6883C34.8738 33.2157 34.7036 33.7376 34.3599 34.1397C34.0163 34.5418 33.5272 34.7912 33 34.8333H11L24.8783 22.33C25.1114 22.1174 25.4154 21.9996 25.7308 21.9996C26.0463 21.9996 26.3503 22.1174 26.5833 22.33L34.8333 30.5433V32.6883Z" fill="#0056B8"/>
</svg>
