<svg width="44" height="44" viewBox="0 0 44 44" fill="none" xmlns="http://www.w3.org/2000/svg">
<rect width="44" height="44" rx="4" fill="#5BA200"/>
<path d="M8.82221 15.7342H23.1725L20.4391 18.4676H9.73332V29.4011H33.4226V18.4676H28.6392L31.3726 15.7342H34.3338C35.3402 15.7342 36.156 16.5501 36.156 17.5565V30.3122C36.156 31.3186 35.3402 32.1345 34.3338 32.1345H8.82221C7.81581 32.1345 7 31.3186 7 30.3122V17.5565C7 16.5501 7.81581 15.7342 8.82221 15.7342ZM31.3964 11.3826C31.6514 11.6541 31.779 11.9466 31.779 12.2601L31.6807 12.7217L31.3964 13.1377L25.9312 18.6028L24.5517 19.9823L23.2284 21.3056L22.0438 22.4903L21.0574 23.4713L20.3502 24.1733L19.9991 24.5244L19.4288 25.0456L18.6214 25.6827L17.7387 26.2197C17.4391 26.3695 17.1724 26.4443 16.9383 26.4443C16.7558 26.4443 16.6096 26.3894 16.4996 26.2794C16.3896 26.1694 16.3346 26.0197 16.3346 25.8301C16.3346 25.5961 16.4095 25.3311 16.5593 25.0351L17.0963 24.1523L17.7281 23.345L18.2441 22.7798L29.6413 11.3826L30.0572 11.0983L30.5189 11C30.8324 11 31.1249 11.1276 31.3964 11.3826ZM15.6221 26.2794L16.4996 27.1569L14.7446 28.0344L15.6221 26.2794Z" fill="white"/>
</svg>
