<svg width="25" height="24" viewBox="0 0 25 24" fill="none" xmlns="http://www.w3.org/2000/svg">
<rect x="0.0561523" width="23.9784" height="24" rx="2" fill="#D0112B"/>
<path d="M7.83847 5.89951L7.83847 5.89951L7.83753 5.89857C7.50641 5.56714 6.993 5.56714 6.66187 5.89857L5.9814 6.57965C5.65045 6.9109 5.65045 7.42423 5.9814 7.75548L10.2059 11.9838L5.949 16.2445C5.61804 16.5758 5.61804 17.0891 5.949 17.4204L6.62946 18.1014L6.87706 17.8541L6.62947 18.1014C6.96042 18.4327 7.47348 18.4329 7.80462 18.1019C7.80479 18.1018 7.80496 18.1016 7.80513 18.1014L12.0615 13.8735L16.2856 18.1014C16.6168 18.4329 17.1302 18.4329 17.4613 18.1014L18.1418 17.4203C18.4727 17.0891 18.4727 16.5758 18.1418 16.2445L13.9274 12.0263C13.9268 12.0235 13.9264 12.02 13.9264 12.0162C13.9264 12.0124 13.9268 12.009 13.9274 12.0061L18.1418 7.78792C18.4727 7.45666 18.4727 6.94334 18.1418 6.61208L17.4613 5.931C17.1302 5.59958 16.6168 5.59958 16.2856 5.931L12.0617 10.1588L7.83847 5.89951Z" fill="white" stroke="white" stroke-width="0.7"/>
</svg>
